<svg xmlns="http://www.w3.org/2000/svg" version="1.1" xmlns:xlink="http://www.w3.org/1999/xlink" xmlns:svgjs="http://svgjs.dev/svgjs" width="1500" height="1500" viewBox="0 0 1500 1500"><rect width="1500" height="1500" fill="#ffffff"></rect><g transform="matrix(0.6666666666666666,0,0,0.6666666666666666,250.00007343750008,187.66666666666674)"><svg viewBox="0 0 320 360" data-background-color="#21232b" preserveAspectRatio="xMidYMid meet" height="1687" width="1500" xmlns="http://www.w3.org/2000/svg" xmlns:xlink="http://www.w3.org/1999/xlink"><g id="tight-bounds" transform="matrix(1,0,0,1,0.000023499999997511622,0)"><svg viewBox="0 0 320 360" height="360" width="320"><g><svg></svg></g><g><svg viewBox="0 0 320 360" height="360" width="320"><g><path transform="translate(-74.99272,-51.79039) scale(4.65793,4.65793)" d="M20.6 59.9l0.8 1-0.4-1.3c-0.1-0.6-0.8 0.1-0.4 0.3M21.5 59.3c0.3 0.5 0.6 1 0.6 1.5 0 0.7 0.6 1 1.1 1.2-0.7-0.8-1.1-3-1.7-2.7M59.9 16.9c1.7 0 3.3-0.2 5.1 0.2 4.4 1.1 8.1 3.3 10.6 6.4l7 11.2c0.3 2.8 0.9 5.9 0.8 9.3 0.7 0 0.6-1 1.4-1.2-0.8 2-1.2 4.5-1.4 7.4-0.5-1.6 0-4 0.1-5.3-0.7 1.1-1.1 0.3-1.1-0.2 0.1-0.8-0.3-0.7-0.6-1-1.1-1-1.8-2.1-2.6-3.8 0.5-1.3 0.6-3.2-1-4.2-0.5-0.3-1.1-0.8-1.4-1.6-0.4-1.1-1.1-2.4-0.9-4.1 0.1-0.5-1.5 1.1-2.4 0.4-3.9-2.7-7.8-5.8-12.5-8.4-2.5 0-4.3-0.9-5.2-2-0.8-1-0.2-2.3 1-2.4 0.7 0 1.5-0.2 2.1 0.2 0.1-0.4 0.5-0.9 1-0.9M50 14.6l0.2 0.1c1 0.2 1.5 1.6 2.6 1.1 0 0.7 0.1 1.4-0.1 1.9-0.3 0.8-1.2 0.8-1.9 0.8-6.7-0.4-10.6 2.4-14.7 4.8-1.1 0.7-2.3 1.2-3.2 2.1-4.3 4-9 7.7-10.1 15.1l-0.9 8.2c-0.1 0.9-1.1 1.8-0.9 2.9l0.7 4.9c-0.7-0.7-1.1 0.2-0.9 0.6 0.1 0.3 0.5 1.3 1.1 0.4 0.8 1.5 1.6 4.4 2.7 5.7 3.4 4 7.8 7.6 11.4 11.2 0.9-0.2 1.6-0.2 1.8-0.8 0.3 0.6-0.3 1.2-0.8 1.3 1.6 1 3.4 1.9 5.8 2.1 3.1 0.2 6 0.7 8.7 1.4 1.4-0.4 2.8-0.6 4.3-0.7 0.5 0 0.8-0.8 1.4-1l0.1-1c0.6 0.9 0.5-0.3 0.1-0.9 0.7 0.6 0.9 1.1 1.2 1.5 0-0.3 0.8-1.4 0.8-0.1l0.2-1.3c0.3-0.2 0.4 1.1 0.7 0.2 0.3-0.9 0.9-0.2 1.5-0.5-0.2 0.4-0.1 1.2 0.6 0.7l0.8-0.7c0.5 1.2 1.3 0.7 1.7 0.5 4.4-2.8 8.8-6.1 13-9.4l-0.1 1.3 0.5-1.6c0.5 0.5 0.9 0.1 1.1-0.2 0.6-1 1.4-2 2.7-2.9-1.6 4.3-3.5 7.7-5.9 10.5l-1 1.2c0 0.7-0.2 1.6-1 1.7-0.4 0.1-1.2-0.2-1.8 0.4-0.3 0.4 0.7 1.2-0.1 0.6-0.7-0.5-1.4 0-2.2 0.2-0.6 0.2 0.4 0.8 0.6 1.2 0.2 0.4 0.4 0.8 0.3 1.3l-1.1-1.2c-1.3 0.7-2.1 2-3.2 3-0.5 0.4-0.3 1.1-0.3 1.7-0.7 0-1.5-0.2-1.9 0.2-0.3 0.4-0.2 1-0.2 1.6-1-0.1-1.1-1.6-2-1.3-0.9 0.2-1.9 0.3-2.7 0.8 0.6 1.2-1 0.5-0.8 0.7-1.5-0.9-2.8-1.6-4.4-1-3.4-1.1-7.6-0.6-10.7-0.2 0-0.5 0.1-1-0.1-1.1-0.2 0.5-0.8 0.3-0.7 0.3-1.9-1.3-3.8-2.1-5.8-3.2-1.8 0.2-3.5-0.7-4-1.2-1.4-1.3-3-0.6-4.3-0.9-2.8-0.7-3.8-3.6-4.1-5.6-0.2-1-1-1.4-1.3-1.3-1.3-4.2-3.3-8-4.9-11.9-0.4-1-0.3-2-0.3-3.1 0.5 0.2 1 0.1 0.9-0.6-0.5-3.3-1.7-5.8-3-8.2 0.7-3.4 0.8-7.4 2.4-10.4 1.4-2.7 4-4.1 5.8-6.4 0.6-0.8 0.6-1.9 1.2-2.6 2-2 4-4.1 6.2-5.9 1-0.8 2.2 0 3.7-0.3 0.5-1.8 2.5-3.4 4.4-2.9 0.8 0.2 2.4-1.9 2.9-2.1 0.8-0.3 0.4 0.8 0.4 1.5 1.9-1.5 4.5-2.3 6.9-3.2" fill="#000000" fill-rule="nonzero" stroke="none" stroke-width="1" stroke-linecap="butt" stroke-linejoin="miter" stroke-miterlimit="10" stroke-dasharray="" stroke-dashoffset="0" font-family="none" font-weight="none" font-size="none" text-anchor="none" style="mix-blend-mode: normal" data-fill-palette-color="tertiary"></path></g><g transform="matrix(1,0,0,1,64,133.2496747571933)"><svg viewBox="0 0 192 93.50065048561336" height="93.50065048561336" width="192"><g><svg viewBox="0 0 192 93.50065048561336" height="93.50065048561336" width="192"><g><svg viewBox="0 0 192 93.50065048561336" height="93.50065048561336" width="192"><g transform="matrix(1,0,0,1,0,63.58305969218021)"><svg viewBox="0 0 192 29.91759079343315" height="29.91759079343315" width="192"><g id="textblocktransform"><svg viewBox="0 0 192 29.91759079343315" height="29.91759079343315" width="192" id="textblock"><g><svg viewBox="0 0 192 16.383981983250052" height="16.383981983250052" width="192"><g transform="matrix(1,0,0,1,0,0)"><svg width="192" viewBox="3.05 -36.75757568307199 434.7699999999999 37.30757568307199" height="16.383981983250052" data-palette-color="#f4f3f0"><g class="wordmark-text-0" data-fill-palette-color="primary" id="text-0"><path d="M5.35-34.75Q6.3-34.75 6.8-34.7L6.8-34.7Q7.2-34.7 7.75-34.68 8.3-34.65 9.05-34.7L9.05-34.7 9.35-34.7Q9.75-34.7 9.88-34.55 10-34.4 10-34.1L10-34.1 10-32.25 10-30.75 10-28.7Q10-22.85 9.8-21.25L9.8-21.25Q9.7-20.15 9.7-19.5L9.7-19.5 9.75-17.85 9.85-16.15 10.65-17Q10.9-17.3 12.1-18.5L12.1-18.5Q12.7-19.05 14.3-20.78 15.9-22.5 16.8-23.5L16.8-23.5Q17.2-24.05 18.7-25.7 20.2-27.35 21.45-28.6L21.45-28.6Q22.25-29.5 23-30.25L23-30.25Q25.95-33.5 26.15-33.85L26.15-33.85Q26.65-34.6 27.2-34.7L27.2-34.7Q27.35-34.7 27.83-34.73 28.3-34.75 28.6-34.7L28.6-34.7Q28.95-34.65 28.95-34.35L28.95-34.35Q28.95-34.15 28.7-33.9L28.7-33.9Q28.6-33.8 27.4-32.58 26.2-31.35 25.55-30.8L25.55-30.8Q25.05-30.35 22.63-27.4 20.2-24.45 19.75-23.8L19.75-23.8Q18.45-22.35 16.6-20.4L16.6-20.4 13.9-17.6Q13.65-17.95 15.65-15.55L15.65-15.55Q17.05-13.85 18.3-12.6L18.3-12.6Q18.8-12.1 21.3-9.1L21.3-9.1Q24.5-5.35 24.85-5.05L24.85-5.05Q25.35-4.6 27.55-1.95L27.55-1.95 28.55-0.75Q28.7-0.55 28.7-0.35L28.7-0.35Q28.7 0.05 27.85 0.05L27.85 0.05 21.4 0.2Q20.8 0.2 20.38 0 19.95-0.2 19.45-0.7L19.45-0.7Q19.1-1 16.8-4L16.8-4Q15-6.45 14.3-7.2L14.3-7.2Q13.4-8 11.65-10.15L11.65-10.15 9.85-12.2Q9.85-10.7 9.8-10.05L9.8-10.05 9.7-6.85 9.65-3.4Q9.65-1.55 9.8-1L9.8-1Q9.85-0.85 9.85-0.65L9.85-0.65Q9.85-0.3 9.68-0.23 9.5-0.15 9.15-0.15L9.15-0.15 7.15-0.15 5.95-0.1Q4.65 0 4.05 0L4.05 0Q3.55 0 3.45-0.05L3.45-0.05Q3.1-0.05 3.1-0.35L3.1-0.35Q3.1-0.5 3.3-1.1L3.3-1.1Q3.4-1.45 3.2-2.7L3.2-2.7Q3.15-3 3.1-3.45 3.05-3.9 3.05-4.4L3.05-4.4Q3.1-7.15 3.23-13.18 3.35-19.2 3.5-20.05L3.5-20.05Q3.65-21.4 3.65-25.05L3.65-25.05Q3.65-26.95 3.6-27.4L3.6-27.4Q3.55-27.8 3.55-29.5L3.55-29.5Q3.55-31 3.63-32.48 3.7-33.95 3.8-34.4L3.8-34.4Q3.85-34.9 4.35-34.9L4.35-34.9Q4.6-34.9 4.85-34.83 5.1-34.75 5.35-34.75L5.35-34.75ZM48.15-31.15Q48.15-34.25 48.2-35L48.2-35Q48.2-35.95 48.85-36.15 49.5-36.35 50.75-36.35L50.75-36.35Q51.85-36.35 53.57-36.48 55.3-36.6 56.25-36.75L56.25-36.75Q56.95-36.8 57.25-36.52 57.55-36.25 57.55-35.6L57.55-35.6Q57.55-35.4 57.45-34.5L57.45-34.5Q57.35-33.75 57.35-24.55L57.35-24.55 57.35-13.25Q57.35-10.7 57.42-7.63 57.5-4.55 57.6-2.1 57.7 0.35 57.7-0.75L57.7-0.75Q57.7 0.05 56.9 0.05L56.9 0.05Q56.55 0.05 56.3 0L56.3 0Q56.1-0.05 55.5-0.05L55.5-0.05Q54.9-0.05 53.6 0.05L53.6 0.05Q52.2 0.15 51.65 0.15L51.65 0.15Q50.7 0.15 50.22-0.25 49.75-0.65 49.25-1.7L49.25-1.7 48.4-3.4Q46.9-6.75 45.75-8.65L45.75-8.65Q45.1-9.75 42.45-14.7L42.45-14.7 40.25-18.85 40.25-16.95 40.25-15.8Q40.25-15.4 40.22-14.8 40.2-14.2 40.25-13.45L40.25-13.45Q40.25-10.85 40.32-6.65 40.4-2.45 40.55-1.6L40.55-1.6Q40.6-1.35 40.6-1L40.6-1Q40.6-0.5 40.4-0.38 40.2-0.25 39.65-0.3L39.65-0.3Q38.85-0.3 37.77-0.2 36.7-0.1 35.75 0L35.75 0Q35 0.1 34.77-0.25 34.55-0.6 34.6-1.8L34.6-1.8Q34.6-3.6 34.45-8.15L34.45-8.15Q34.25-12.9 34.2-16.4L34.2-16.4Q34.2-19.95 34.35-23.6L34.35-23.6Q34.45-28.2 34.45-29.9L34.45-29.9Q34.45-32.2 34.3-33.25L34.3-33.25Q34.2-34.15 34.2-34.4L34.2-34.4Q34.2-35.3 34.5-35.63 34.8-35.95 35.3-35.95L35.3-35.95Q35.55-35.95 36.3-35.93 37.05-35.9 38.45-36.25L38.45-36.25Q39-36.35 39.55-36.35L39.55-36.35Q39.85-36.35 40.4-36.3 40.95-36.25 41.85-36.25L41.85-36.25Q43-36.25 43.77-35.35 44.55-34.45 45.45-32.8L45.45-32.8 45.95-31.9Q46.55-30.8 47.4-29.55L47.4-29.55 48.15-28.4 48.15-31.15ZM82.69-34.9Q85.69-32.9 87.52-29.5 89.34-26.1 90.07-22.88 90.8-19.65 90.8-17.8L90.8-17.8Q90.8-14.7 89.82-10.6 88.84-6.5 85.64-2.98 82.44 0.55 76.39 0.55L76.39 0.55Q68.09 0.55 64.59-9.1L64.59-9.1Q63.05-13.45 62.84-18.8L62.84-18.8Q62.84-23.2 64.69-27.18 66.55-31.15 69.57-33.55 72.59-35.95 75.8-35.95L75.8-35.95Q78.69-35.95 80.12-35.8 81.55-35.65 82.69-34.9L82.69-34.9ZM76.14-2.25Q81.44-2.25 84.05-6.68 86.64-11.1 86.64-17.8L86.64-17.8Q86.64-21.9 85.42-25.38 84.19-28.85 81.97-30.93 79.75-33 76.84-33L76.84-33Q76.59-33 75.52-33 74.44-33 73.64-32.65 72.84-32.3 72.19-31.6L72.19-31.6Q70.55-29.95 69.42-28.58 68.3-27.2 67.17-24.5 66.05-21.8 66.05-18.25L66.05-18.25Q66.05-14.05 67.07-10.43 68.09-6.8 70.34-4.53 72.59-2.25 76.14-2.25L76.14-2.25ZM106.44-16.75Q107.04-17.05 108.24-19.5L108.24-19.5 108.89-20.7Q108.99-20.9 109.89-22.3L109.89-22.3Q110.14-22.75 111.04-24.13 111.94-25.5 112.14-26.1L112.14-26.1Q112.64-26.9 113.02-27.28 113.39-27.65 113.84-27.65L113.84-27.65Q114.19-27.65 114.32-27.45 114.44-27.25 114.52-26.83 114.59-26.4 114.74-25.95L114.74-25.95Q114.79-25.45 115.19-23.7L115.19-23.7 115.79-20.7Q116.19-19.15 116.74-17.95L116.74-17.95Q116.94-17.4 117.29-16.75L117.29-16.75Q117.39-17.2 117.59-17.65L117.59-17.65 118.19-19.2Q118.24-19.5 118.44-20.13 118.64-20.75 118.74-21.15L118.74-21.15Q119.64-24.15 119.74-24.55L119.74-24.55Q120.14-26.2 121.14-29.43 122.14-32.65 122.54-33.65L122.54-33.65Q122.74-34.5 123.17-34.7 123.59-34.9 124.09-34.88 124.59-34.85 124.79-34.85L124.79-34.85 128.89-34.85Q129.89-34.85 129.89-34.25L129.89-34.25Q129.89-34 129.84-33.77 129.79-33.55 129.74-33.35L129.74-33.35Q129.54-32.85 129.29-31.9L129.29-31.9Q128.64-29.75 127.99-28L127.99-28Q126.99-25 125.79-20.6L125.79-20.6 125.24-18.7 124.14-14.1 122.69-8.15Q122.04-5.95 120.94-3.08 119.84-0.2 119.39-0.2L119.39-0.2Q118.84-0.2 118.44-0.93 118.04-1.65 117.69-2.8L117.69-2.8Q117.24-3.65 116.47-5.85 115.69-8.05 115.09-10.05L115.09-10.05Q114.84-11.15 113.94-13.95L113.94-13.95Q113.64-14.75 113.54-15.15L113.54-15.15 112.49-18.15Q112.24-17.5 112.14-17.35L112.14-17.35Q111.94-16.85 111.72-16.4 111.49-15.95 111.29-15.55L111.29-15.55 107.84-8.8 107.09-7.1Q105.59-3.75 105.24-2.65L105.24-2.65Q104.79-1.5 104.27-0.78 103.74-0.05 103.19-0.05L103.19-0.05Q102.44-0.05 102.19-1.4L102.19-1.4Q102.09-1.65 101.82-2.33 101.54-3 101.14-5.05L101.14-5.05Q100.89-6.35 99.19-13.65L99.19-13.65Q98.94-14.8 98.44-16.82 97.94-18.85 97.84-19.5L97.84-19.5Q97.24-21.9 96.84-23.75L96.84-23.75Q95.34-30.25 94.89-31.8L94.89-31.8Q94.64-32.95 94.64-33.4L94.64-33.4Q94.64-34 94.87-34.2 95.09-34.4 95.59-34.55L95.59-34.55 97.24-34.65Q99.04-34.85 100.24-34.85L100.24-34.85Q101.24-34.85 101.52-34.58 101.79-34.3 101.87-33.9 101.94-33.5 101.94-33.35L101.94-33.35 102.19-32.05Q102.69-29.65 102.84-29L102.84-29 103.69-26.05Q105.14-21.2 105.24-20.55L105.24-20.55Q105.39-20.1 105.59-18.8L105.59-18.8Q105.74-18.05 105.89-17.4 106.04-16.75 106.29-16.75L106.29-16.75 106.44-16.75Z" fill="#000000" data-fill-palette-color="primary"></path><path d="M152.84-33.4Q153.34-31.65 154.14-29.25L154.14-29.25 154.49-28.1Q155.24-25.55 155.69-24.55L155.69-24.55Q156.34-23.05 157.09-20.75L157.09-20.75Q157.89-18.35 157.89-18.35L157.89-18.35 158.29-19.6Q158.59-20.7 158.99-21.75L158.99-21.75 159.54-23.25 160.04-24.55Q160.04-24.55 160.54-25.85L160.54-25.85Q160.94-26.95 161.14-27.3L161.14-27.3Q161.54-28.1 162.11-29.88 162.69-31.65 162.99-33.05L162.99-33.05Q163.24-34.05 163.61-34.3 163.99-34.55 164.39-34.52 164.79-34.5 164.89-34.5L164.89-34.5Q165.04-34.5 166.14-34.52 167.24-34.55 168.04-34.45L168.04-34.45Q169.09-34.3 169.09-33.95L169.09-33.95Q169.09-33.9 168.99-33.5L168.99-33.5Q168.89-33.25 168.76-32.88 168.64-32.5 168.49-32.05L168.49-32.05Q167.29-28.5 166.94-27.7L166.94-27.7Q166.04-25.5 164.76-22.2 163.49-18.9 162.59-16.5L162.59-16.5Q161.99-14.75 159.89-9.55L159.89-9.55Q158.09-5.25 157.94-4.6L157.94-4.6Q157.74-4 157.51-2.68 157.29-1.35 157.19-0.95L157.19-0.95Q156.94 0.1 156.39 0.05L156.39 0.05 155.04 0.05Q154.74 0.1 153.04 0.1L153.04 0.1 151.19 0.15Q150.59 0.15 150.59-0.15L150.59-0.15Q150.59-0.3 150.66-0.43 150.74-0.55 150.79-0.7L150.79-0.7 151.34-2.2Q152.49-5.45 152.54-5.55L152.54-5.55Q152.64-5.95 153.49-8.25L153.49-8.25 153.89-9.25Q153.99-9.5 154.19-9.93 154.39-10.35 154.41-10.63 154.44-10.9 154.34-11.15L154.34-11.15Q154.24-11.3 153.89-12.6L153.89-12.6Q153.79-12.9 153.49-13.93 153.19-14.95 152.89-15.5L152.89-15.5Q152.59-16.25 152.09-17.95L152.09-17.95Q151.74-19.1 151.44-20L151.44-20Q150.64-22.2 149.46-25.65 148.29-29.1 147.59-31.2L147.59-31.2Q147.34-32 146.94-32.8L146.94-32.8Q146.59-33.6 146.59-33.85L146.59-33.85Q146.59-34.2 146.96-34.33 147.34-34.45 148.09-34.5L148.09-34.5Q148.29-34.55 148.89-34.55L148.89-34.55Q149.64-34.55 150.09-34.5L150.09-34.5Q151.74-34.5 152.14-34.45L152.14-34.45Q152.54-34.4 152.66-34.25 152.79-34.1 152.79-33.85 152.79-33.6 152.84-33.4L152.84-33.4ZM192.29-34.9Q195.29-32.9 197.11-29.5 198.94-26.1 199.66-22.88 200.39-19.65 200.39-17.8L200.39-17.8Q200.39-14.7 199.41-10.6 198.44-6.5 195.23-2.98 192.04 0.55 185.98 0.55L185.98 0.55Q177.69 0.55 174.19-9.1L174.19-9.1Q172.64-13.45 172.44-18.8L172.44-18.8Q172.44-23.2 174.29-27.18 176.14-31.15 179.16-33.55 182.19-35.95 185.39-35.95L185.39-35.95Q188.29-35.95 189.71-35.8 191.14-35.65 192.29-34.9L192.29-34.9ZM185.73-2.25Q191.04-2.25 193.64-6.68 196.23-11.1 196.23-17.8L196.23-17.8Q196.23-21.9 195.01-25.38 193.79-28.85 191.56-30.93 189.34-33 186.44-33L186.44-33Q186.19-33 185.11-33 184.04-33 183.23-32.65 182.44-32.3 181.79-31.6L181.79-31.6Q180.14-29.95 179.01-28.58 177.89-27.2 176.76-24.5 175.64-21.8 175.64-18.25L175.64-18.25Q175.64-14.05 176.66-10.43 177.69-6.8 179.94-4.53 182.19-2.25 185.73-2.25L185.73-2.25ZM215.23-34.9L215.23-14.9Q215.23-13.8 215.36-13 215.48-12.2 216.11-11.48 216.73-10.75 218.13-10.75L218.13-10.75Q220.08-10.75 220.78-12.23 221.48-13.7 221.48-15.45L221.48-15.45 221.53-17.95Q221.68-23.5 221.68-24.15L221.68-24.15Q221.68-25.55 221.63-26.05L221.63-26.05Q221.63-27.8 221.43-31.4L221.43-31.4 221.33-34.15Q221.33-35.05 221.58-35.4 221.83-35.75 222.53-35.75L222.53-35.75 228.88-35.75 229.63-35.8Q230.13-35.8 230.46-35.5 230.78-35.2 230.88-34.3L230.88-34.3Q230.98-33.45 230.98-28.4L230.98-28.4 230.93-17.65Q230.93-14.85 230.03-10.93 229.13-7 226.28-3.65 223.43-0.3 218.13-0.3L218.13-0.3Q206.23-0.3 205.33-11.7L205.33-11.7Q205.28-12.2 205.28-13.7L205.28-13.7Q205.28-15.25 205.38-19.15L205.38-19.15Q205.53-23.65 205.48-25.85L205.48-25.85Q205.48-28.85 205.38-32.15L205.38-32.15Q205.33-33.1 205.33-34.1L205.33-34.1Q205.33-34.3 205.31-34.85 205.28-35.4 205.51-35.65 205.73-35.9 206.33-35.9L206.33-35.9 209.23-35.85Q210.23-35.85 210.68-35.9L210.68-35.9Q211.78-36 212.48-36L212.48-36 214.48-35.95Q214.93-35.95 215.06-35.73 215.18-35.5 215.23-34.9L215.23-34.9ZM259.33-2.05Q260.68-0.7 260.68-0.2L260.68-0.2Q260.68-0.1 260.43 0.15L260.43 0.15Q259.98 0.45 258.18 0.45L258.18 0.45Q256.88 0.45 256.53 0.28 256.18 0.1 256.01-0.3 255.83-0.7 255.73-0.9L255.73-0.9Q255.58-1.2 254.51-2.63 253.43-4.05 252.88-4.8L252.88-4.8Q250.23-8.2 248.28-10.95L248.28-10.95Q247.08-12.65 243.83-16.8L243.83-16.8 243.03-17.8 239.58-22.1 239.38-20.1Q239.18-18.6 239.28-16.5L239.28-16.5Q239.43-15.1 239.48-9.25 239.53-3.4 239.53-0.7L239.53-0.7Q239.53 0.1 238.93 0.33 238.33 0.55 237.53 0.55L237.53 0.55Q237.18 0.55 237.08 0.25 236.98-0.05 236.96-0.4 236.93-0.75 236.93-0.85L236.93-0.85Q236.83-1.65 236.83-3.2L236.83-3.2Q236.83-4.2 236.88-4.7L236.88-4.7Q236.93-7.4 237.03-14.13 237.13-20.85 237.13-26.2L237.13-26.2Q237.13-31.95 236.98-32.9L236.98-32.9Q236.93-33.3 236.93-33.95L236.93-33.95Q236.93-34.7 237.16-34.9 237.38-35.1 237.83-35.1L237.83-35.1Q238.83-35.1 239.78-35.05L239.78-35.05 245.23-34.95Q248.23-34.95 251.48-33.9 254.73-32.85 254.73-30L254.73-30Q254.73-27.3 252.73-25.8 250.73-24.3 248.26-23.75 245.78-23.2 243.93-23.2L243.93-23.2Q243.28-23.2 243.23-23.25L243.23-23.25Q243.53-22.95 247.18-17.95L247.18-17.95Q258.18-3.2 259.33-2.05L259.33-2.05ZM239.43-25.25Q241.08-25.25 241.93-25.3L241.93-25.3Q244.83-25.4 246.43-25.7L246.43-25.7Q248.73-26.1 249.91-26.8 251.08-27.5 251.08-29L251.08-29Q251.08-30 250.03-30.73 248.98-31.45 247.51-31.83 246.03-32.2 244.93-32.2L244.93-32.2Q243.68-32.25 241.43-32.25L241.43-32.25 239.73-32.25 239.43-25.25Z" fill="#000000" data-fill-palette-color="accent"></path><path d="M288.38-32.5L288.28-29.8Q288.08-25.7 288.08-23.65L288.08-23.65 288.18-16.1Q288.23-14.3 288.23-12.4L288.23-12.4 288.13-6.95 288.08-5.95 288.13-4.55 288.23-2.8 295.38-2.55 301.33-2.5 301.43-2.5Q301.73-2.5 301.78-2.4 301.83-2.3 301.8-2.13 301.78-1.95 301.78-1.85L301.78-1.85Q301.73-1.65 301.8-1.1 301.88-0.55 301.88-0.1L301.88-0.1Q301.88 0.25 301.63 0.35 301.38 0.45 301 0.43 300.63 0.4 300.43 0.4L300.43 0.4 297.78 0.25Q294.28-0.05 292.83-0.05L292.83-0.05Q291.23-0.05 284.73 0.25L284.73 0.25 280.18 0.4Q279.08 0.4 279.08-0.6L279.08-0.6 279.08-4.5 279.28-21.25Q279.28-23.15 279.03-28.15L279.03-28.15 278.83-34.3Q278.83-35.15 279.48-35.15L279.48-35.15Q279.73-35.15 280.33-35 280.93-34.85 281.28-34.85L281.28-34.85Q282.68-34.65 284.63-34.65L284.63-34.65Q285.98-34.65 287.18-34.8L287.18-34.8Q287.93-34.9 288.23-34.7 288.53-34.5 288.53-34.05L288.53-34.05Q288.53-33.7 288.45-33.33 288.38-32.95 288.38-32.5L288.38-32.5ZM325.98-33.25L325.98-32.7Q325.98-31.55 325.78-31.55L325.78-31.55Q325.48-31.55 325.1-31.63 324.73-31.7 324.18-31.7L324.18-31.7 316.18-31.7 309.98-31.75Q309.68-31.75 307.73-31.6L307.73-31.6 306.58-31.5 306.48-30.15Q306.43-29.4 306.43-27.8L306.43-27.8Q306.43-27 306.53-25.7L306.53-25.7Q306.63-24.5 306.63-23.95L306.63-23.95 306.63-21.95Q306.63-21.15 306.68-20.7L306.68-20.7Q307.13-20.65 308.03-20.65L308.03-20.65 310.03-20.65Q310.33-20.65 311.23-20.75L311.23-20.75Q312.53-20.85 313.48-20.85L313.48-20.85Q313.88-20.85 316.28-20.7L316.28-20.7 317.38-20.65Q317.78-20.65 318.53-20.73 319.28-20.8 319.98-20.8L319.98-20.8 321.63-20.75Q322.93-20.65 323.43-20.65L323.43-20.65Q323.98-20.65 324.18-20.7L324.18-20.7 324.48-20.75Q324.83-20.75 324.98-20.53 325.13-20.3 325.08-20.1L325.08-20.1Q325.03-19.75 325.03-19.23 325.03-18.7 324.98-18.3L324.98-18.3Q324.93-17.9 324.83-17.82 324.73-17.75 324.23-17.75L324.23-17.75 322.23-17.95Q318.48-18.3 317.33-18.3L317.33-18.3Q313.08-18.3 311.08-18.15L311.08-18.15Q310.28-18.05 309.33-18.05 308.38-18.05 308.13-18.05L308.13-18.05Q307.18-18.05 306.73-18.1L306.73-18.1 306.58-17.3Q306.48-16.4 306.48-15.7L306.48-15.7Q306.48-15.1 306.58-14.3L306.58-14.3Q306.68-13.5 306.68-12.9L306.68-12.9 306.73-6.95 306.68-4.45Q306.63-4 306.63-3.2L306.63-3.2Q307.28-3.15 308.53-3.15L308.53-3.15Q309.58-3.1 311.78-3.1L311.78-3.1 314.48-3.05Q315.33-3 317.08-3L317.08-3Q318.13-3 319.83-3.1L319.83-3.1 321.93-3.15Q323.13-3.15 323.93-3.1 324.73-3.05 325.13-3.05L325.13-3.05Q325.53-3.05 325.6-2.9 325.68-2.75 325.68-2.25L325.68-2.25Q325.68-1.9 325.63-1.53 325.58-1.15 325.58-0.7L325.58-0.7Q325.58-0.35 325.33-0.23 325.08-0.1 324.53-0.1L324.53-0.1Q323.98-0.1 323.63-0.15L323.63-0.15Q322.28-0.3 318.18-0.3L318.18-0.3Q315.68-0.3 314.58-0.25L314.58-0.25Q313.73-0.2 311.78-0.2L311.78-0.2 307.13-0.25Q306.33-0.3 305.23-0.3L305.23-0.3Q304.53-0.3 304.3-0.48 304.08-0.65 304.08-1.05L304.08-1.05 304.13-1.85Q304.18-2.05 304.18-2.3L304.18-2.3Q304.18-2.45 304.13-3.03 304.08-3.6 304.08-5.15L304.08-5.15Q304.08-6.65 303.98-10.05L303.98-10.05Q303.83-12.85 303.83-15.45L303.83-15.45Q303.83-16.55 304.08-21.8L304.08-21.8Q304.13-22.85 304.18-23.9 304.23-24.95 304.23-25.8L304.23-25.8Q304.23-31.6 304.08-33.45L304.08-33.45Q303.93-34.65 305.53-34.65L305.53-34.65Q305.93-34.65 306.83-34.55L306.83-34.55Q307.63-34.45 308.03-34.45L308.03-34.45 311.18-34.55Q314.58-34.75 316.43-34.75L316.43-34.75Q318.58-34.75 322.48-34.65L322.48-34.65Q323.73-34.6 325.13-34.6L325.13-34.6Q325.73-34.6 325.88-34.3 326.03-34 326-33.68 325.98-33.35 325.98-33.25L325.98-33.25ZM355.92-1Q356.17-0.5 356.17-0.35L356.17-0.35Q356.17 0.05 355.27 0.05L355.27 0.05 351.67 0.05Q351.47 0.05 351.27-0.3 351.07-0.65 350.92-1 350.77-1.35 350.67-1.6L350.67-1.6Q350.42-2.1 349.75-3.9 349.07-5.7 348.72-6.75L348.72-6.75Q348.57-7.25 348.12-8.22 347.67-9.2 347.47-9.6L347.47-9.6Q347.27-10.2 347.1-10.4 346.92-10.6 346.57-10.6L346.57-10.6Q346.22-10.6 345.7-10.55 345.17-10.5 344.57-10.45L344.57-10.45Q344.17-10.35 342.07-10.35L342.07-10.35Q340.62-10.35 339.22-10.25L339.22-10.25Q338.77-10.2 337.62-10.2L337.62-10.2 334.97-10.25Q334.72-10.25 334.6-10.05 334.47-9.85 334.42-9.58 334.37-9.3 334.32-9.15L334.32-9.15 334.02-7.9Q333.87-7.2 333.65-6.28 333.42-5.35 333.27-4.55L333.27-4.55 332.72-2.4 332.32-0.95Q332.17-0.35 332.05-0.18 331.92 0 331.67 0L331.67 0 328.72 0Q328.47 0 328.47-0.2L328.47-0.2Q328.47-0.3 328.67-0.9L328.67-0.9Q329.07-1.85 329.37-2.8L329.37-2.8Q331.22-9 331.57-10.9L331.57-10.9Q332.02-13.4 333.42-17.35L333.42-17.35Q333.87-19.05 334.27-20.45L334.27-20.45Q334.42-21.15 334.72-22.15L334.72-22.15Q335.67-25.65 336.62-28.7L336.62-28.7 337.87-32.7Q338.27-34.25 338.87-35.9L338.87-35.9Q339.17-36.65 339.57-36.25L339.57-36.25Q339.87-36.05 340.02-35.55 340.17-35.05 340.22-34.85L340.22-34.85Q340.37-34.25 342.87-28.85L342.87-28.85Q343.87-26.8 345.02-23.5L345.02-23.5Q345.52-22.05 347.77-17.25L347.77-17.25Q348.92-14.9 349.27-14L349.27-14Q350.07-12.25 353.57-5.5L353.57-5.5 354.17-4.25Q355.32-1.7 355.92-1L355.92-1ZM342.82-17.5Q343.17-17.55 343.42-17.55 343.67-17.55 343.82-17.6 343.97-17.65 343.97-17.75L343.97-17.75Q343.97-17.85 343.82-18.15L343.82-18.15Q343.57-18.6 342.67-20.68 341.77-22.75 341.42-23.8L341.42-23.8Q340.92-25 340.65-25.8 340.37-26.6 340.22-26.9L340.22-26.9Q340.12-27.15 340-27.4 339.87-27.65 339.77-27.8 339.67-27.95 339.57-27.95L339.57-27.95Q339.42-27.95 339.25-27.2 339.07-26.45 338.97-26.05L338.97-26.05Q338.07-23.15 337.67-21.65L337.67-21.65Q337.47-20.9 337.1-19.83 336.72-18.75 336.57-18.35L336.57-18.35Q336.42-17.85 336.42-17.55L336.42-17.55Q336.42-17.25 336.87-17.25L336.87-17.25Q337.92-17.25 340.1-17.32 342.27-17.4 342.82-17.5L342.82-17.5ZM378.52-30.7Q381.47-28.1 382.42-24.53 383.37-20.95 383.37-16.65L383.37-16.65Q383.37-14.4 382.62-11.6 381.87-8.8 380.55-6.4 379.22-4 377.47-2.85L377.47-2.85Q375.07-1.3 371.52-0.68 367.97-0.05 365.92-0.05L365.92-0.05 360.82-0.05Q360.27-0.05 360.12-0.3 359.97-0.55 360.12-0.85L360.12-0.85Q360.17-1 360.17-1.25L360.17-1.25Q360.17-1.45 360.15-1.78 360.12-2.1 360.12-2.7L360.12-2.7Q360.12-4.35 360.07-5.95L360.07-5.95 359.97-15 360.02-25.05Q360.02-26.35 359.97-27.58 359.92-28.8 359.87-29.7L359.87-29.7 359.77-32.85Q359.82-34 359.92-34.45 360.02-34.9 360.32-34.9L360.32-34.9 360.47-34.9Q360.67-34.9 360.92-34.83 361.17-34.75 361.37-34.75L361.37-34.75Q361.77-34.75 362.35-34.8 362.92-34.85 363.52-34.85L363.52-34.85 365.47-34.8Q368.27-34.8 370.52-34.55L370.52-34.55Q370.72-34.55 371.85-34.45 372.97-34.35 374.75-33.4 376.52-32.45 378.52-30.7L378.52-30.7ZM368.37-1.95Q371.82-1.75 374.67-3.2L374.67-3.2Q377.42-4.6 379.22-7.85 381.02-11.1 381.02-16.65L381.02-16.65Q381.02-22.15 379.25-25.48 377.47-28.8 374.77-30.45L374.77-30.45Q372.02-32.1 368.52-32.15L368.52-32.15 368.32-27.6Q368.17-25.15 368.17-20.85L368.17-20.85Q368.17-20.45 368.32-16.4L368.32-16.4Q368.47-14.7 368.47-13.2L368.47-13.2 368.42-6.75Q368.37-5.25 368.37-1.95L368.37-1.95ZM409.27-33.25L409.27-32.7Q409.27-31.55 409.07-31.55L409.07-31.55Q408.77-31.55 408.39-31.63 408.02-31.7 407.47-31.7L407.47-31.7 399.47-31.7 393.27-31.75Q392.97-31.75 391.02-31.6L391.02-31.6 389.87-31.5 389.77-30.15Q389.72-29.4 389.72-27.8L389.72-27.8Q389.72-27 389.82-25.7L389.82-25.7Q389.92-24.5 389.92-23.95L389.92-23.95 389.92-21.95Q389.92-21.15 389.97-20.7L389.97-20.7Q390.42-20.65 391.32-20.65L391.32-20.65 393.32-20.65Q393.62-20.65 394.52-20.75L394.52-20.75Q395.82-20.85 396.77-20.85L396.77-20.85Q397.17-20.85 399.57-20.7L399.57-20.7 400.67-20.65Q401.07-20.65 401.82-20.73 402.57-20.8 403.27-20.8L403.27-20.8 404.92-20.75Q406.22-20.65 406.72-20.65L406.72-20.65Q407.27-20.65 407.47-20.7L407.47-20.7 407.77-20.75Q408.12-20.75 408.27-20.53 408.42-20.3 408.37-20.1L408.37-20.1Q408.32-19.75 408.32-19.23 408.32-18.7 408.27-18.3L408.27-18.3Q408.22-17.9 408.12-17.82 408.02-17.75 407.52-17.75L407.52-17.75 405.52-17.95Q401.77-18.3 400.62-18.3L400.62-18.3Q396.37-18.3 394.37-18.15L394.37-18.15Q393.57-18.05 392.62-18.05 391.67-18.05 391.42-18.05L391.42-18.05Q390.47-18.05 390.02-18.1L390.02-18.1 389.87-17.3Q389.77-16.4 389.77-15.7L389.77-15.7Q389.77-15.1 389.87-14.3L389.87-14.3Q389.97-13.5 389.97-12.9L389.97-12.9 390.02-6.95 389.97-4.45Q389.92-4 389.92-3.2L389.92-3.2Q390.57-3.15 391.82-3.15L391.82-3.15Q392.87-3.1 395.07-3.1L395.07-3.1 397.77-3.05Q398.62-3 400.37-3L400.37-3Q401.42-3 403.12-3.1L403.12-3.1 405.22-3.15Q406.42-3.15 407.22-3.1 408.02-3.05 408.42-3.05L408.42-3.05Q408.82-3.05 408.89-2.9 408.97-2.75 408.97-2.25L408.97-2.25Q408.97-1.9 408.92-1.53 408.87-1.15 408.87-0.7L408.87-0.7Q408.87-0.35 408.62-0.23 408.37-0.1 407.82-0.1L407.82-0.1Q407.27-0.1 406.92-0.15L406.92-0.15Q405.57-0.3 401.47-0.3L401.47-0.3Q398.97-0.3 397.87-0.25L397.87-0.25Q397.02-0.2 395.07-0.2L395.07-0.2 390.42-0.25Q389.62-0.3 388.52-0.3L388.52-0.3Q387.82-0.3 387.59-0.48 387.37-0.65 387.37-1.05L387.37-1.05 387.42-1.85Q387.47-2.05 387.47-2.3L387.47-2.3Q387.47-2.45 387.42-3.03 387.37-3.6 387.37-5.15L387.37-5.15Q387.37-6.65 387.27-10.05L387.27-10.05Q387.12-12.85 387.12-15.45L387.12-15.45Q387.12-16.55 387.37-21.8L387.37-21.8Q387.42-22.85 387.47-23.9 387.52-24.95 387.52-25.8L387.52-25.8Q387.52-31.6 387.37-33.45L387.37-33.45Q387.22-34.65 388.82-34.65L388.82-34.65Q389.22-34.65 390.12-34.55L390.12-34.55Q390.92-34.45 391.32-34.45L391.32-34.45 394.47-34.55Q397.87-34.75 399.72-34.75L399.72-34.75Q401.87-34.75 405.77-34.65L405.77-34.65Q407.02-34.6 408.42-34.6L408.42-34.6Q409.02-34.6 409.17-34.3 409.32-34 409.29-33.68 409.27-33.35 409.27-33.25L409.27-33.25ZM436.47-2.05Q437.82-0.7 437.82-0.2L437.82-0.2Q437.82-0.1 437.57 0.15L437.57 0.15Q437.12 0.45 435.32 0.45L435.32 0.45Q434.02 0.45 433.67 0.28 433.32 0.1 433.14-0.3 432.97-0.7 432.87-0.9L432.87-0.9Q432.72-1.2 431.64-2.63 430.57-4.05 430.02-4.8L430.02-4.8Q427.37-8.2 425.42-10.95L425.42-10.95Q424.22-12.65 420.97-16.8L420.97-16.8 420.17-17.8 416.72-22.1 416.52-20.1Q416.32-18.6 416.42-16.5L416.42-16.5Q416.57-15.1 416.62-9.25 416.67-3.4 416.67-0.7L416.67-0.7Q416.67 0.1 416.07 0.33 415.47 0.55 414.67 0.55L414.67 0.55Q414.32 0.55 414.22 0.25 414.12-0.05 414.09-0.4 414.07-0.75 414.07-0.85L414.07-0.85Q413.97-1.65 413.97-3.2L413.97-3.2Q413.97-4.2 414.02-4.7L414.02-4.7Q414.07-7.4 414.17-14.13 414.27-20.85 414.27-26.2L414.27-26.2Q414.27-31.95 414.12-32.9L414.12-32.9Q414.07-33.3 414.07-33.95L414.07-33.95Q414.07-34.7 414.29-34.9 414.52-35.1 414.97-35.1L414.97-35.1Q415.97-35.1 416.92-35.05L416.92-35.05 422.37-34.95Q425.37-34.95 428.62-33.9 431.87-32.85 431.87-30L431.87-30Q431.87-27.3 429.87-25.8 427.87-24.3 425.39-23.75 422.92-23.2 421.07-23.2L421.07-23.2Q420.42-23.2 420.37-23.25L420.37-23.25Q420.67-22.95 424.32-17.95L424.32-17.95Q435.32-3.2 436.47-2.05L436.47-2.05ZM416.57-25.25Q418.22-25.25 419.07-25.3L419.07-25.3Q421.97-25.4 423.57-25.7L423.57-25.7Q425.87-26.1 427.04-26.8 428.22-27.5 428.22-29L428.22-29Q428.22-30 427.17-30.73 426.12-31.45 424.64-31.83 423.17-32.2 422.07-32.2L422.07-32.2Q420.82-32.25 418.57-32.25L418.57-32.25 416.87-32.25 416.57-25.25Z" fill="#000000" data-fill-palette-color="primary"></path></g></svg></g></svg></g><g transform="matrix(1,0,0,1,0,18.77479817017383)"><svg viewBox="0 0 192 11.142792623259314" height="11.142792623259314" width="192"><g transform="matrix(1,0,0,1,0,0)"><svg width="192" viewBox="1.5 -28.8 719.25 38.55" height="11.142792623259314" data-palette-color="#f4f3f0"><g class="slogan-text-1" data-fill-palette-color="secondary" id="text-1"><path d="M35.95-28.75L35.95-23.1 21.55-23.1 21.55 0 14.65 0 14.65-23.1 1.5-23.1 1.5-28.75 35.95-28.75ZM42.45 0.05L42.45-28.75 48.6-28.75 48.6-22 56.2-22 56.2-17.2 48.6-17.2 48.6 0.05 42.45 0.05ZM72.2 0.05L72.2-18.55 66.55-22 58.4-22 58.4-17.2 65.9-17.2 65.9 0.05 72.2 0.05ZM80.7-22L87-22 87 0.05 80.7 0.05 80.7-22ZM86.9-28.7L86.9-24.05 80.7-24.05 80.7-28.7 86.9-28.7ZM95.99-0.05L95.99-22 102.34-22 102.34-19.85 109.74-22 109.74-17.3 102.34-17.3 102.34-0.05 95.99-0.05ZM125.94-0.05L125.94-18.55 120.04-22 112.14-22 112.14-17.3 119.69-17.3 119.69-0.05 125.94-0.05ZM135.44 0.05L135.44-28.75 141.74-28.75 141.74-13.1 144.54-13.1 144.54-9.45 141.74-9.45 141.74 0.05 135.44 0.05ZM165.29-3.4L152.74-11.5 164.19-19.05 160.04-22 147.04-13.1 147.04-9.45 159.64 0.05 165.29-3.4Z" fill="#000000" data-fill-palette-color="primary"></path><path d="M205.403 0L205.403-28.75 221.403-28.75 221.403-23.1 211.703-23.1 211.703-17.2 221.403-17.2 221.403-11.5 211.703-11.5 211.703-5.85 221.403-5.85 221.403 0 205.403 0ZM234.203 0L239.853-3.4 239.853-12.15 235.153-14.35 239.853-16.6 239.853-25.3 234.203-28.75 223.853-28.75 223.853-23.1 233.553-23.1 233.553-17.2 223.853-17.2 223.853-11.5 233.553-11.5 233.553-5.85 223.853-5.85 223.853 0 234.203 0ZM278.053-18.55L278.053-12.85 272.153-9.4 264.153-9.4 264.153-13.25 271.703-13.25 271.703-17.35 264.153-17.35 264.153-22.05 272.153-22.05 278.053-18.55ZM271.503-6.95L278.053-6.95 278.053-3.45 272.153 0 264.153 0 264.153-5.3 271.503-5.3 271.503-6.95ZM247.853-18.55L247.853-3.45 253.753 0 261.703 0 261.703-5.3 254.153-5.3 254.153-9.4 261.703-9.4 261.703-13.25 254.153-13.25 254.153-17.35 261.703-17.35 261.703-22.05 253.753-22.05 247.853-18.55ZM296.793-13.2L296.793-17.2 304.343-17.2 304.343-13.2 296.793-13.2ZM294.593-28.8L294.593 0 288.343 0 288.343-13.2 283.543-13.2 283.543-17.2 288.343-17.2 288.343-25.35 294.593-28.8ZM310.593-21.85L304.343-21.85 304.343-24.15 296.793-24.15 296.793-28.8 304.943-28.8 310.593-25.35 310.593-21.85ZM312.093-3.5L312.093-18.55 317.943-22 325.843-22 325.843-17.3 318.343-17.3 318.343-5.4 325.843-5.4 325.843-0.05 317.943-0.05 312.093-3.5ZM341.443-3.5L341.443-18.55 335.593-22 327.643-22 327.643-17.3 335.193-17.3 335.193-5.4 327.643-5.4 327.643-0.05 335.593-0.05 341.443-3.5ZM350.443 0L350.443-21.85 356.693-21.85 356.693-19.7 364.193-21.85 364.193-17.2 356.693-17.2 356.693 0 350.443 0ZM372.943-15.05L372.943-19.1 366.443-21.85 366.443-15.05 372.943-15.05ZM407.643-18.55L407.643-12.85 401.743-9.4 393.743-9.4 393.743-13.25 401.293-13.25 401.293-17.35 393.743-17.35 393.743-22.05 401.743-22.05 407.643-18.55ZM401.093-6.95L407.643-6.95 407.643-3.45 401.743 0 393.743 0 393.743-5.3 401.093-5.3 401.093-6.95ZM377.443-18.55L377.443-3.45 383.343 0 391.293 0 391.293-5.3 383.743-5.3 383.743-9.4 391.293-9.4 391.293-13.25 383.743-13.25 383.743-17.35 391.293-17.35 391.293-22.05 383.343-22.05 377.443-18.55Z" fill="#000000" data-fill-palette-color="accent"></path><path d="M447.257-6.35L447.257-21.9 453.557-21.9 453.557-6.9 461.057-6.9 461.057-2.9 453.007-2.9 447.257-6.35ZM447.257 2.25L453.557 2.25 453.557 4.55 461.057 4.55 461.057 9.75 453.007 9.75 447.257 6.3 447.257 2.25ZM470.857-21.9L477.157-21.9 477.157 6.3 470.857 9.75 463.357 9.75 463.357 4.55 470.857 4.55 470.857-2.9 463.357-2.9 463.357-6.9 470.857-6.9 470.857-21.9ZM485.657-3.5L485.657-18.55 491.507-22 499.407-22 499.407-17.3 491.907-17.3 491.907-5.4 499.407-5.4 499.407-0.05 491.507-0.05 485.657-3.5ZM515.007-3.5L515.007-18.55 509.157-22 501.207-22 501.207-17.3 508.757-17.3 508.757-5.4 501.207-5.4 501.207-0.05 509.157-0.05 515.007-3.5ZM553.297-21.85L553.297 0 547.047 0 547.047-2.25 539.547 0 539.547-5.25 547.047-5.25 547.047-21.85 553.297-21.85ZM523.497-21.85L523.497-3.45 529.147 0 537.247 0 537.247-5.25 529.797-5.25 529.797-21.85 523.497-21.85Z" fill="#000000" data-fill-palette-color="primary"></path><path d="M588.91-20.05L595.21-21.85 603.46-9.3 603.46 0 601.51 0 588.91-20.05ZM619.91-20.05L613.86-21.85 605.96-9.3 605.96 0 607.76 0 619.91-20.05ZM624.41-3.5L624.41-18.55 630.26-22 638.16-22 638.16-17.3 630.66-17.3 630.66-5.4 638.16-5.4 638.16-0.05 630.26-0.05 624.41-3.5ZM653.75-3.5L653.75-18.55 647.91-22 639.96-22 639.96-17.3 647.5-17.3 647.5-5.4 639.96-5.4 639.96-0.05 647.91-0.05 653.75-3.5ZM671.25-17.2L671.25-21.85 678.75-21.85 678.75-17.2 671.25-17.2ZM678.75-7.5L685.05-7.5 685.05-3.45 679.35 0 671.25 0 671.25-5.25 678.75-5.25 678.75-7.5ZM658.25-19.35L669-25.3 669-5.25 669 0 662.75-3.45 662.75-17.2 658.25-17.15 658.25-19.35ZM720.75-18.55L720.75-12.85 714.85-9.4 706.85-9.4 706.85-13.25 714.4-13.25 714.4-17.35 706.85-17.35 706.85-22.05 714.85-22.05 720.75-18.55ZM714.2-6.95L720.75-6.95 720.75-3.45 714.85 0 706.85 0 706.85-5.3 714.2-5.3 714.2-6.95ZM690.55-18.55L690.55-3.45 696.45 0 704.4 0 704.4-5.3 696.85-5.3 696.85-9.4 704.4-9.4 704.4-13.25 696.85-13.25 696.85-17.35 704.4-17.35 704.4-22.05 696.45-22.05 690.55-18.55Z" fill="#000000" data-fill-palette-color="accent"></path></g></svg></g></svg></g></svg></g></svg></g><g transform="matrix(1,0,0,1,64.71118670691203,0)"><svg viewBox="0 0 62.57762658617594 61.19224350525643" height="61.19224350525643" width="62.57762658617594"><g><svg xmlns="http://www.w3.org/2000/svg" viewBox="5 5.999999999999999 89.99800000000002 88.0055673476543" x="0" y="0" height="61.19224350525643" width="62.57762658617594" class="icon-icon-0" data-fill-palette-color="accent" id="icon-0"><path d="M18.983 18c-0.001 2.438-2.22 4.656-4.656 4.656-2.438 0-4.656-2.218-4.656-4.656-0.001-2.439 2.218-4.662 4.656-4.662 2.439 0 4.662 2.221 4.656 4.662" color="#2F84FF" fill="#000000" data-fill-palette-color="accent"></path><path d="M9.196 24.496c-2.322 0-4.196 1.891-4.196 4.214 0 0.262 0.011 0.514 0.055 0.763l3.451 17.471c0.366 1.697 2.104 3.178 4.069 3.178l3.505 0c1.964 0 3.703-1.481 4.069-3.178l3.433-17.471c0.044-0.249 0.072-0.501 0.072-0.763 0-2.322-1.874-4.214-4.196-4.214-3.42 0-6.841 0-10.262 0" color="#2F84FF" fill="#000000" data-fill-palette-color="accent"></path><path d="M44.08 11.592c-0.001 2.925-2.663 5.585-5.585 5.585-2.925 0-5.585-2.66-5.585-5.585-0.001-2.926 2.66-5.592 5.585-5.592 2.926 0 5.592 2.664 5.585 5.592" color="#2F84FF" fill="#000000" data-fill-palette-color="accent"></path><path d="M32.34 19.381c-2.785 0-5.03 2.269-5.03 5.055 0 0.314 0.013 0.617 0.066 0.916l4.14 20.958c0.439 2.036 2.524 3.813 4.881 3.813l4.204 0c2.356 0 4.442-1.777 4.881-3.813l4.118-20.958c0.053-0.299 0.087-0.602 0.087-0.916 0-2.785-2.248-5.055-5.03-5.055-4.103 0-8.206 0-12.31 0" color="#2F84FF" fill="#000000" data-fill-palette-color="accent"></path><path d="M67.67 18c-0.001 2.438-2.22 4.656-4.656 4.656-2.438 0-4.656-2.218-4.656-4.656-0.001-2.439 2.218-4.662 4.656-4.662 2.439 0 4.662 2.221 4.656 4.662" color="#2F84FF" fill="#000000" data-fill-palette-color="accent"></path><path d="M57.883 24.496c-2.322 0-4.196 1.891-4.196 4.214 0 0.262 0.011 0.514 0.055 0.763l3.451 17.471c0.366 1.697 2.104 3.178 4.069 3.178l3.505 0c1.964 0 3.703-1.481 4.069-3.178l3.433-17.471c0.044-0.249 0.072-0.501 0.072-0.763 0-2.322-1.874-4.214-4.196-4.214-3.42 0-6.841 0-10.262 0" color="#2F84FF" fill="#000000" data-fill-palette-color="accent"></path><path d="M90.33 18c-0.001 2.438-2.22 4.656-4.656 4.656-2.438 0-4.656-2.218-4.656-4.656-0.001-2.439 2.218-4.662 4.656-4.662 2.439 0 4.662 2.221 4.656 4.662" color="#2F84FF" fill="#000000" data-fill-palette-color="accent"></path><path d="M80.54 24.496c-2.322 0-4.196 1.891-4.196 4.214 0 0.262 0.011 0.514 0.055 0.763l3.451 17.471c0.366 1.697 2.104 3.178 4.069 3.178l3.505 0c1.964 0 3.703-1.481 4.069-3.178l3.433-17.471c0.044-0.249 0.072-0.501 0.072-0.763 0-2.322-1.874-4.214-4.196-4.214-3.42 0-6.841 0-10.262 0" color="#2F84FF" fill="#000000" data-fill-palette-color="accent"></path><path d="M37.13 65.38c-0.999 0.453-1.441 1.633-0.988 2.631l3.051 6.719-0.714 0.324-2.069-4.553c-0.453-0.999-1.633-1.441-2.631-0.988-0.999 0.453-1.441 1.633-0.988 2.631l2.917 6.423-0.726 0.329-1.749-3.85c-0.453-0.998-1.633-1.441-2.631-0.988-0.998 0.453-1.442 1.632-0.742 3.173l5.03 11.08c2.141 4.707 8.961 7.269 14.755 4.64 5.795-2.633 8.353-9.453 5.722-15.247l0.012-0.006-5.266-11.56c-0.7-1.541-0.833-1.805-1.831-1.35-1.75 0.795-1.871 2.778-1.417 3.776l2.236 4.923-0.726 0.329-7.228-15.914c-0.453-0.999-1.632-1.441-2.631-0.988-0.999 0.454-1.441 1.633-0.988 2.631l6 13.217-0.726 0.329-3.051-6.719c-0.452-0.998-1.633-1.441-2.631-0.988" fill="#000000" data-fill-palette-color="accent"></path></svg></g></svg></g><g></g></svg></g></svg></g></svg></g></svg></g><defs></defs></svg><rect width="320" height="360" fill="none" stroke="none" visibility="hidden"></rect></g></svg></g></svg>